<svg xmlns="http://www.w3.org/2000/svg" width="27.107" height="21" viewBox="0 0 27.107 21">
  <g id="Group_1127" data-name="Group 1127" transform="translate(-1532.746 -4091)">
    <g id="Path_15" data-name="Path 15" transform="translate(1539.337 4091)" fill="#fff">
      <path d="M 10.65500545501709 20.24999237060547 L 10.31082534790039 20.24986267089844 L 10.02431488037109 20.24975395202637 C 4.910445213317871 20.24975395202637 0.7500051259994507 15.87597370147705 0.7500051259994507 10.49987316131592 C 0.7500051259994507 5.123773097991943 4.910445213317871 0.7500032782554626 10.02431488037109 0.7500032782554626 C 15.13818550109863 0.7500032782554626 19.29862594604492 5.123773097991943 19.29862594604492 10.49987316131592 C 19.29862594604492 11.1519136428833 19.04664421081543 11.97977352142334 18.77986526489258 12.85624313354492 C 18.15276527404785 14.91651344299316 17.372314453125 17.4805736541748 19.56044578552246 19.35670280456543 C 19.60586166381836 19.39564323425293 19.64218711853027 19.42991638183594 19.67111778259277 19.45940208435059 C 19.3781909942627 19.61679458618164 18.53249168395996 19.91588973999023 16.19268417358398 20.09417343139648 C 14.39060497283936 20.23148345947266 12.38208484649658 20.24999237060547 10.65500545501709 20.24999237060547 Z" stroke="none"/>
      <path d="M 10.02431488037109 1.500003814697266 C 5.323986053466797 1.500003814697266 1.499994277954102 5.537322998046875 1.499994277954102 10.49987316131592 C 1.499994277954102 15.46242332458496 5.323986053466797 19.49975395202637 10.02431488037109 19.49975395202637 L 10.31124496459961 19.49986267089844 L 10.65500545501709 19.49999237060547 C 12.24709510803223 19.49999237060547 14.10454559326172 19.48451232910156 15.80972480773926 19.36970329284668 C 16.96282958984375 19.29206085205078 17.75091552734375 19.18737030029297 18.28454971313477 19.08760833740234 C 16.73493194580078 16.99882125854492 17.52031707763672 14.41868209838867 18.06236457824707 12.63785362243652 C 18.31242561340332 11.81629371643066 18.54862594604492 11.04029369354248 18.54862594604492 10.49987316131592 C 18.54862594604492 5.537322998046875 14.72463512420654 1.500003814697266 10.02431488037109 1.500003814697266 M 10.02431488037109 3.814697265625e-06 C 15.56059455871582 3.814697265625e-06 20.04862594604492 4.700952529907227 20.04862594604492 10.49987316131592 C 20.04862594604492 12.9006233215332 17.38535499572754 16.50381278991699 20.04862594604492 18.78733253479004 C 22.55569076538086 20.93690490722656 14.33425045013428 20.99999809265137 10.65500354766846 20.99999809265137 C 10.42575073242188 20.99999809265137 10.21460723876953 20.99975395202637 10.02431488037109 20.99975395202637 C 4.488035202026367 20.99975395202637 -5.7220458984375e-06 16.29880332946777 -5.7220458984375e-06 10.49987316131592 C -5.7220458984375e-06 4.700952529907227 4.488035202026367 3.814697265625e-06 10.02431488037109 3.814697265625e-06 Z" stroke="none" fill="#bcc3d9"/>
    </g>
    <g id="Path_16" data-name="Path 16" transform="translate(1532.746 4097.858)" fill="#fff">
      <path d="M 7.439642906188965 13.39159297943115 C 6.179903030395508 13.39159297943115 4.712512969970703 13.38003349304199 3.380532741546631 13.29426288604736 C 2.176171064376831 13.21671772003174 1.487758874893188 13.1015157699585 1.099989414215088 13.0052661895752 C 2.733495950698853 11.5338306427002 2.58039665222168 9.523069381713867 2.466912746429443 8.033633232116699 C 2.440352916717529 7.68505334854126 2.415262699127197 7.3558030128479 2.415262699127197 7.070713043212891 C 2.415262699127197 5.228272914886475 2.89615273475647 3.663003206253052 3.805952787399292 2.544133186340332 C 4.773983001708984 1.353633165359497 6.156612873077393 0.7500031590461731 7.915432929992676 0.7500031590461731 C 11.6720027923584 0.7500031590461731 14.72820281982422 3.585463047027588 14.72820281982422 7.070713043212891 C 14.72820281982422 10.55597305297852 11.6720027923584 13.391432762146 7.915432929992676 13.391432762146 L 7.699392795562744 13.39151287078857 L 7.439642906188965 13.39159297943115 Z" stroke="none"/>
      <path d="M 7.915433883666992 1.500002861022949 C 6.393363952636719 1.500002861022949 5.206523895263672 2.010493278503418 4.387853622436523 3.017292976379395 C 3.599453926086426 3.986883163452148 3.165264129638672 5.426413536071777 3.165264129638672 7.070713043212891 C 3.165264129638672 7.327272891998291 3.18929386138916 7.642703056335449 3.214743614196777 7.976643085479736 C 3.309720039367676 9.223089218139648 3.441575050354004 10.95200157165527 2.515463829040527 12.47086429595947 C 2.828751564025879 12.50314712524414 3.203909873962402 12.53365421295166 3.652423858642578 12.55943298339844 C 4.912143707275391 12.63183307647705 6.2738037109375 12.64159297943115 7.439643859863281 12.64159297943115 L 7.698863983154297 12.64150333404541 L 7.915433883666992 12.641432762146 C 11.25845336914063 12.641432762146 13.97820377349854 10.14242362976074 13.97820377349854 7.070713043212891 C 13.97820377349854 3.99901294708252 11.25845336914063 1.500002861022949 7.915433883666992 1.500002861022949 M 7.915433883666992 2.86102294921875e-06 C 12.09223365783691 2.86102294921875e-06 15.47820377349854 3.16566276550293 15.47820377349854 7.070713043212891 C 15.47820377349854 10.97576332092285 12.09223365783691 14.141432762146 7.915433883666992 14.141432762146 C 7.77186918258667 14.141432762146 7.612601280212402 14.14159774780273 7.439643383026123 14.14159774780273 C 4.663857460021973 14.14159774780273 -1.538782119750977 14.09910774230957 0.3526535034179688 12.65156364440918 C 2.361953735351563 11.11382293701172 1.665264129638672 8.687393188476563 1.665264129638672 7.070713043212891 C 1.665264129638672 3.16566276550293 3.73862361907959 2.86102294921875e-06 7.915433883666992 2.86102294921875e-06 Z" stroke="none" fill="#bcc3d9"/>
    </g>
  </g>
</svg>
