<svg xmlns="http://www.w3.org/2000/svg" width="30" height="22" viewBox="0 0 30 22">
  <g id="Group_1131" data-name="Group 1131" transform="translate(-1472 -4086)">
    <g id="Polygon_2" data-name="Polygon 2" transform="translate(1472 4086)" fill="#fff">
      <path d="M 20.63092041015625 21.25000190734863 L 3.369080066680908 21.25000190734863 C 2.923490047454834 21.25000190734863 2.52167010307312 21.02125358581543 2.294209957122803 20.63808250427246 C 2.066750049591064 20.25491333007813 2.058340072631836 19.79261207580566 2.27170991897583 19.40143203735352 L 10.90262985229492 3.578092813491821 C 11.12512969970703 3.170182704925537 11.53536033630371 2.926652669906616 12 2.926652669906616 C 12.46463966369629 2.926652669906616 12.87487030029297 3.170182704925537 13.09737014770508 3.578092813491821 L 21.72829055786133 19.40143203735352 C 21.94165992736816 19.79261207580566 21.93325042724609 20.25491333007813 21.70578956604004 20.63808250427246 C 21.47833061218262 21.02125358581543 21.07650947570801 21.25000190734863 20.63092041015625 21.25000190734863 Z" stroke="none"/>
      <path d="M 12 3.676652908325195 C 11.88914966583252 3.676652908325195 11.68472003936768 3.710502624511719 11.56105041503906 3.937232971191406 L 2.930139541625977 19.76056289672852 C 2.811540603637695 19.97799301147461 2.884870529174805 20.16382217407227 2.939140319824219 20.25523376464844 C 2.993400573730469 20.34664344787598 3.121419906616211 20.50000381469727 3.36907958984375 20.50000381469727 L 20.63090896606445 20.50000381469727 C 20.87858009338379 20.50000381469727 21.00659942626953 20.34664344787598 21.06085968017578 20.25523376464844 C 21.1151294708252 20.1638126373291 21.1884593963623 19.97799301147461 21.06986999511719 19.76057243347168 L 12.43894958496094 3.937232971191406 C 12.31527996063232 3.710502624511719 12.11085033416748 3.676652908325195 12 3.676652908325195 M 12 2.176654815673828 C 12.68838787078857 2.176654815673828 13.37677478790283 2.524087905883789 13.7557897567749 3.218952178955078 L 22.38670921325684 19.04229354858398 C 23.11366081237793 20.37504196166992 22.1490306854248 22.00000190734863 20.63090896606445 22.00000190734863 L 3.36907958984375 22.00000190734863 C 1.850969314575195 22.00000190734863 0.8863391876220703 20.37504196166992 1.613290786743164 19.04229354858398 L 10.2442102432251 3.218952178955078 C 10.62322521209717 2.524087905883789 11.31161212921143 2.176654815673828 12 2.176654815673828 Z" stroke="none" fill="#bcc3d9"/>
    </g>
    <g id="Polygon_3" data-name="Polygon 3" transform="translate(1487 4094)" fill="#fff">
      <path d="M 11.65965938568115 13.2500057220459 L 3.340338945388794 13.2500057220459 C 2.896698951721191 13.2500057220459 2.495779037475586 13.02276611328125 2.267879009246826 12.64213562011719 C 2.039978981018066 12.26150608062744 2.02898907661438 11.80078601837158 2.238489151000977 11.40971565246582 L 6.398149013519287 3.645025730133057 C 6.619449138641357 3.23192572593689 7.031359195709229 2.98529577255249 7.499999046325684 2.98529577255249 C 7.968638896942139 2.98529577255249 8.380549430847168 3.23192572593689 8.601848602294922 3.645025730133057 L 12.76150894165039 11.4097261428833 C 12.97100925445557 11.80078601837158 12.9600191116333 12.26150608062744 12.73211860656738 12.64213562011719 C 12.50421905517578 13.02276611328125 12.10329914093018 13.2500057220459 11.65965938568115 13.2500057220459 Z" stroke="none"/>
      <path d="M 7.499999046325684 3.735295295715332 C 7.38818883895874 3.735295295715332 7.182259082794189 3.769576072692871 7.059258937835693 3.999185562133789 L 2.899599075317383 11.76388549804688 C 2.783159255981445 11.98124599456787 2.856979370117188 12.16604614257813 2.911358833312988 12.25685596466064 C 2.965728759765625 12.34766578674316 3.093758583068848 12.5000057220459 3.340338706970215 12.5000057220459 L 11.65965938568115 12.5000057220459 C 11.9062385559082 12.5000057220459 12.03426933288574 12.34766578674316 12.08863925933838 12.25685596466064 C 12.14300918579102 12.16604614257813 12.21683883666992 11.98124599456787 12.10039901733398 11.76388549804688 L 7.940739154815674 3.99919605255127 C 7.817728996276855 3.769576072692871 7.611799240112305 3.735295295715332 7.499999046325684 3.735295295715332 M 7.499999046325684 2.235298156738281 C 8.192986488342285 2.235298156738281 8.885973930358887 2.587150573730469 9.262958526611328 3.290855407714844 L 13.4226188659668 11.05555534362793 C 14.13636875152588 12.38788604736328 13.17112922668457 14.0000057220459 11.65965938568115 14.0000057220459 L 3.340338706970215 14.0000057220459 C 1.828868865966797 14.0000057220459 0.8636293411254883 12.38789558410645 1.57737922668457 11.05555534362793 L 5.737038612365723 3.290855407714844 C 6.11402416229248 2.587150573730469 6.807011604309082 2.235298156738281 7.499999046325684 2.235298156738281 Z" stroke="none" fill="#bcc3d9"/>
    </g>
    <g id="Ellipse_49" data-name="Ellipse 49" transform="translate(1491 4087)" fill="#fff" stroke="#bcc3d9" stroke-width="1.5">
      <circle cx="3.5" cy="3.5" r="3.5" stroke="none"/>
      <circle cx="3.5" cy="3.5" r="2.75" fill="none"/>
    </g>
  </g>
</svg>
