<svg xmlns="http://www.w3.org/2000/svg" width="210.003" height="190.51" viewBox="0 0 210.003 190.51">
  <g id="upload_1_" data-name="upload (1)" transform="translate(0.001)">
    <path id="Path_19" data-name="Path 19" d="M169.6,52.874a65.7,65.7,0,0,0-128.866-.04,45.993,45.993,0,0,0,5.3,91.683H78.88a6.571,6.571,0,1,0,0-13.141H46.028a32.853,32.853,0,1,1,.388-65.7,6.569,6.569,0,0,0,6.531-5.846,52.562,52.562,0,0,1,104.429,0,6.964,6.964,0,0,0,6.918,5.846,32.852,32.852,0,1,1,0,65.7H131.442a6.571,6.571,0,1,0,0,13.141H164.3a45.992,45.992,0,0,0,5.3-91.643Zm0,0" transform="translate(0 0)" fill="#19302d"/>
    <path id="Path_20" data-name="Path 20" d="M229.973,231.248a6.57,6.57,0,0,0,9.453-9.128c-.053-.056-.107-.109-.162-.162L211.4,194.087a6.571,6.571,0,0,0-9.293-.013s-.008.008-.011.013l-27.865,27.872a6.57,6.57,0,1,0,9.129,9.451c.054-.053.109-.107.162-.162l16.656-16.663v82.7a6.57,6.57,0,1,0,13.139,0v-82.7Zm0,0" transform="translate(-101.585 -113.341)" fill="#19302d"/>
  </g>
</svg>
