<?xml version="1.0"?>
<svg xmlns="http://www.w3.org/2000/svg" xmlns:xlink="http://www.w3.org/1999/xlink" version="1.1" id="Capa_1" x="0px" y="0px" viewBox="0 0 512 512" style="enable-background:new 0 0 512 512;" xml:space="preserve" width="512px" height="512px"><g><g>
	<g>
		<path d="M346,422c-8.284,0-15,6.716-15,15v30c0,8.271-6.729,15-15,15H196c-8.271,0-15-6.729-15-15v-30c0-8.284-6.716-15-15-15    s-15,6.716-15,15v30c0,24.813,20.187,45,45,45h120c24.813,0,45-20.187,45-45v-30C361,428.716,354.284,422,346,422z" data-original="#000000" class="active-path" data-old_color="#000000" fill="#BCC3D9"/>
	</g>
</g><g>
	<g>
		<path d="M420.415,151.967c-3.246-38.784-19.912-74.95-47.745-103.04C341.405,17.376,299.972,0,256,0s-85.405,17.376-116.67,48.928    c-27.835,28.091-44.489,64.26-47.734,103.045C39.937,158.957,0,202.942,0,256c0,57.897,47.552,105,106,105h105v46    c0,24.813,20.187,45,45,45s45-20.187,45-45v-46h105c58.448,0,106-47.103,106-105C512,203.586,472.716,159.02,420.415,151.967z     M296.607,257.816c-9.405-9.41-25.606-2.748-25.606,10.606V407H271c0,8.271-6.729,15-15,15s-15-6.729-15-15V268.422    c0-8.293-6.733-15-14.997-15c-7.628,0-10.543,4.328-19.398,13.183c-5.848,5.847-15.361,5.847-21.209,0    c-5.866-5.868-5.865-15.342,0-21.209l60-60c5.866-5.865,15.342-5.866,21.209,0l60,60c5.866,5.868,5.865,15.342,0,21.209    c-5.866,5.865-15.342,5.866-21.209,0L296.607,257.816z M406,331H301v-32.55c15.462,5.453,33.878,2.307,46.817-10.633    c17.59-17.589,17.592-46.044,0-63.635l-60-60c-17.543-17.545-46.092-17.545-63.635,0l-60,60c-17.59,17.589-17.592,46.044,0,63.635    c12.638,12.64,30.985,16.173,46.818,10.603V331H106c-41.906,0-76-33.645-76-75c0-60.55,68.94-95.165,117.81-62.276    c6.872,4.625,16.194,2.803,20.818-4.07c4.625-6.873,2.803-16.194-4.07-20.819c-12.965-8.725-27.558-14.372-42.864-16.666    C128.595,83.65,186.195,30,256,30c69.813,0,127.409,53.659,134.301,122.188c-12.01,1.814-23.667,5.689-34.328,11.476    c-7.281,3.952-9.979,13.058-6.028,20.339c3.953,7.28,13.056,9.98,20.339,6.027C419.699,163.211,482,198.811,482,256    C482,297.355,447.906,331,406,331z" data-original="#000000" class="active-path" data-old_color="#000000" fill="#BCC3D9"/>
	</g>
</g></g> </svg>
